<svg aria-hidden="true" style="position: absolute; width: 0; height: 0; overflow: hidden;" version="1.1" xmlns="http://www.w3.org/2000/svg" xmlns:xlink="http://www.w3.org/1999/xlink">
<defs>
<symbol id="icon-arrow" viewBox="0 0 32 32">
<path d="M6.4 0v3.2h20.144l-26.544 26.544 2.256 2.256 26.544-26.544v20.144h3.2v-25.6h-25.6z"></path>
</symbol>
<symbol id="icon-arrow_top" viewBox="0 0 32 32">
<path d="M3.87 13.987l1.508 1.508 9.496-9.496v25.026h2.127v-25.026l9.496 9.496 1.508-1.508-12.068-12.068-12.068 12.068z"></path>
</symbol>
<symbol id="icon-chat" viewBox="0 0 32 32">
<path d="M16 0c2.416 0.001 4.801 0.55 6.975 1.605s4.081 2.588 5.577 4.485c1.497 1.897 2.544 4.108 3.064 6.468s0.499 4.806-0.062 7.157-1.647 4.543-3.176 6.413c-1.53 1.871-3.463 3.371-5.655 4.387s-4.586 1.524-7.001 1.483c-2.416-0.041-4.791-0.628-6.948-1.718l-0.242-0.13-7.29 1.82c-0.14 0.035-0.287 0.040-0.429 0.013s-0.277-0.084-0.395-0.168c-0.118-0.084-0.216-0.192-0.288-0.318s-0.116-0.265-0.128-0.409v-0.164l0.028-0.166 1.82-7.288-0.126-0.24c-0.915-1.802-1.479-3.761-1.66-5.774l-0.050-0.764-0.014-0.692c0-4.243 1.686-8.313 4.686-11.314s7.070-4.686 11.314-4.686zM17 18h-6l-0.18 0.016c-0.231 0.042-0.439 0.163-0.589 0.343s-0.232 0.407-0.232 0.641c0 0.234 0.082 0.461 0.232 0.641s0.359 0.301 0.589 0.343l0.18 0.016h6l0.18-0.016c0.231-0.042 0.439-0.163 0.589-0.343s0.232-0.407 0.232-0.641c0-0.234-0.082-0.461-0.232-0.641s-0.359-0.301-0.589-0.343l-0.18-0.016zM21 12h-10l-0.18 0.016c-0.231 0.042-0.439 0.163-0.589 0.343s-0.232 0.407-0.232 0.641c0 0.234 0.082 0.461 0.232 0.641s0.359 0.301 0.589 0.343l0.18 0.016h10l0.18-0.016c0.231-0.042 0.439-0.163 0.589-0.343s0.232-0.407 0.232-0.641-0.082-0.461-0.232-0.641c-0.15-0.18-0.359-0.301-0.589-0.343l-0.18-0.016z"></path>
<path d="M21 12h-10l-0.18 0.016c-0.231 0.042-0.439 0.163-0.589 0.343s-0.232 0.407-0.232 0.641c0 0.234 0.082 0.461 0.232 0.641s0.359 0.301 0.589 0.343l0.18 0.016h10l0.18-0.016c0.231-0.042 0.439-0.163 0.589-0.343s0.232-0.407 0.232-0.641-0.082-0.461-0.232-0.641c-0.15-0.18-0.359-0.301-0.589-0.343l-0.18-0.016z"></path>
<path d="M17 18h-6l-0.18 0.016c-0.231 0.042-0.439 0.163-0.589 0.343s-0.232 0.407-0.232 0.641c0 0.234 0.082 0.461 0.232 0.641s0.359 0.301 0.589 0.343l0.18 0.016h6l0.18-0.016c0.231-0.042 0.439-0.163 0.589-0.343s0.232-0.407 0.232-0.641c0-0.234-0.082-0.461-0.232-0.641s-0.359-0.301-0.589-0.343l-0.18-0.016z"></path>
</symbol>
<symbol id="icon-dot" viewBox="0 0 32 32">
<path d="M16 0c8.837 0 16 7.163 16 16s-7.163 16-16 16c-8.837 0-16-7.163-16-16s7.163-16 16-16z"></path>
</symbol>
<symbol id="icon-double-quote" viewBox="0 0 32 32">
<path d="M0 2.667v29.333l13.333-10.667v-18.667h-13.333z"></path>
<path d="M18.667 2.667v29.333l13.333-10.667v-18.667h-13.333z"></path>
</symbol>
<symbol id="icon-instagram" viewBox="0 0 32 32">
<path d="M16 9.59c-3.547 0-6.409 2.863-6.409 6.409s2.863 6.409 6.409 6.409c3.547 0 6.409-2.863 6.409-6.409s-2.863-6.409-6.409-6.409zM16 20.165c-2.294 0-4.166-1.872-4.166-4.166s1.872-4.166 4.166-4.166c2.294 0 4.166 1.872 4.166 4.166s-1.872 4.166-4.166 4.166zM22.672 7.834c-0.828 0-1.497 0.669-1.497 1.497s0.669 1.497 1.497 1.497c0.828 0 1.497-0.666 1.497-1.497 0-0.197-0.038-0.391-0.113-0.573s-0.185-0.347-0.325-0.486c-0.139-0.139-0.304-0.249-0.486-0.324s-0.376-0.114-0.573-0.113zM28.494 15.999c0-1.725 0.016-3.434-0.081-5.156-0.097-2-0.553-3.775-2.016-5.237-1.466-1.466-3.237-1.919-5.237-2.016-1.725-0.097-3.434-0.081-5.156-0.081-1.725 0-3.434-0.016-5.156 0.081-2 0.097-3.775 0.553-5.237 2.016-1.466 1.466-1.919 3.237-2.016 5.237-0.097 1.725-0.081 3.434-0.081 5.156s-0.016 3.434 0.081 5.156c0.097 2 0.553 3.775 2.016 5.237 1.466 1.466 3.237 1.919 5.237 2.016 1.725 0.097 3.434 0.081 5.156 0.081 1.725 0 3.434 0.016 5.156-0.081 2-0.097 3.775-0.553 5.237-2.016 1.466-1.466 1.919-3.237 2.016-5.237 0.1-1.722 0.081-3.431 0.081-5.156zM25.744 23.368c-0.228 0.569-0.503 0.994-0.944 1.431-0.441 0.441-0.863 0.716-1.431 0.944-1.644 0.653-5.547 0.506-7.369 0.506s-5.728 0.147-7.372-0.503c-0.569-0.228-0.994-0.503-1.431-0.944-0.441-0.441-0.716-0.863-0.944-1.431-0.65-1.647-0.503-5.55-0.503-7.372s-0.147-5.728 0.503-7.372c0.228-0.569 0.503-0.994 0.944-1.431s0.863-0.716 1.431-0.944c1.644-0.65 5.55-0.503 7.372-0.503s5.728-0.147 7.372 0.503c0.569 0.228 0.994 0.503 1.431 0.944 0.441 0.441 0.716 0.863 0.944 1.431 0.65 1.644 0.503 5.55 0.503 7.372s0.147 5.725-0.506 7.369z"></path>
</symbol>
<symbol id="icon-rectangle" viewBox="0 0 32 32">
<path d="M0 0h32v32h-32v-32z"></path>
</symbol>
<symbol id="icon-star_1" viewBox="0 0 32 32">
<path d="M16 0l4.526 11.475 11.474 4.525-11.474 4.526-4.526 11.474-4.526-11.474-11.475-4.526 11.475-4.526 4.526-11.475z"></path>
</symbol>
<symbol id="icon-star_2" viewBox="0 0 32 32">
<path d="M16 0l3.674 7.131 7.64-2.444-2.444 7.64 7.131 3.674-7.131 3.674 2.444 7.64-7.64-2.444-3.674 7.131-3.674-7.131-7.64 2.444 2.444-7.64-7.131-3.674 7.131-3.674-2.444-7.64 7.64 2.444 3.674-7.131z"></path>
</symbol>
<symbol id="icon-menu" viewBox="0 0 32 32">
<path d="M2 6h28v6h-28zM2 14h28v6h-28zM2 22h28v6h-28z"></path>
</symbol>
<symbol id="icon-cross" viewBox="0 0 32 32">
<path d="M31.708 25.708c-0-0-0-0-0-0l-9.708-9.708 9.708-9.708c0-0 0-0 0-0 0.105-0.105 0.18-0.227 0.229-0.357 0.133-0.356 0.057-0.771-0.229-1.057l-4.586-4.586c-0.286-0.286-0.702-0.361-1.057-0.229-0.13 0.048-0.252 0.124-0.357 0.228 0 0-0 0-0 0l-9.708 9.708-9.708-9.708c-0-0-0-0-0-0-0.105-0.104-0.227-0.18-0.357-0.228-0.356-0.133-0.771-0.057-1.057 0.229l-4.586 4.586c-0.286 0.286-0.361 0.702-0.229 1.057 0.049 0.13 0.124 0.252 0.229 0.357 0 0 0 0 0 0l9.708 9.708-9.708 9.708c-0 0-0 0-0 0-0.104 0.105-0.18 0.227-0.229 0.357-0.133 0.355-0.057 0.771 0.229 1.057l4.586 4.586c0.286 0.286 0.702 0.361 1.057 0.229 0.13-0.049 0.252-0.124 0.357-0.229 0-0 0-0 0-0l9.708-9.708 9.708 9.708c0 0 0 0 0 0 0.105 0.105 0.227 0.18 0.357 0.229 0.356 0.133 0.771 0.057 1.057-0.229l4.586-4.586c0.286-0.286 0.362-0.702 0.229-1.057-0.049-0.13-0.124-0.252-0.229-0.357z"></path>
</symbol>
</defs>
</svg>
